<?xml version="1.0" encoding="UTF-8" standalone="no"?>
<svg
   xmlns:dc="http://purl.org/dc/elements/1.1/"
   xmlns:cc="http://creativecommons.org/ns#"
   xmlns:rdf="http://www.w3.org/1999/02/22-rdf-syntax-ns#"
   xmlns:svg="http://www.w3.org/2000/svg"
   xmlns="http://www.w3.org/2000/svg"
   xmlns:sodipodi="http://sodipodi.sourceforge.net/DTD/sodipodi-0.dtd"
   xmlns:inkscape="http://www.inkscape.org/namespaces/inkscape"
   version="1.1"
   x="0px"
   y="0px"
   width="24"
   height="24"
   viewBox="0 0 24 24"
   id="svg2"
   inkscape:version="0.91 r13725"
   sodipodi:docname="signavio-logo-negative.svg">
  <metadata
     id="metadata12">
    <rdf:RDF>
      <cc:Work
         rdf:about="">
        <dc:format>image/svg+xml</dc:format>
        <dc:type
           rdf:resource="http://purl.org/dc/dcmitype/StillImage" />
        <dc:title></dc:title>
      </cc:Work>
    </rdf:RDF>
  </metadata>
  <defs
     id="defs10" />
  <sodipodi:namedview
     pagecolor="#ffffff"
     bordercolor="#666666"
     borderopacity="1"
     objecttolerance="10"
     gridtolerance="10"
     guidetolerance="10"
     inkscape:pageopacity="0"
     inkscape:pageshadow="2"
     inkscape:window-width="640"
     inkscape:window-height="480"
     id="namedview8"
     showgrid="false"
     inkscape:zoom="4.1891892"
     inkscape:cx="37"
     inkscape:cy="12"
     inkscape:window-x="0"
     inkscape:window-y="23"
     inkscape:window-maximized="0"
     inkscape:current-layer="svg2" />
  <path
     d="m 21.3,11.37 c -0.08,-0.14 -0.23,-0.25 -0.43,-0.27 -0.1,0 -0.9,-0.05 -1.67,-0.07 -0.16,0 -0.6,0 -0.84,0 -0.04,0 -0.07,0 -0.1,0 0,0 -0.05,0 -0.06,-0.08 -0.08,-0.2 -0.23,-0.73 -0.4,-1.09 -0.17,-0.3 -0.39,-0.6 -0.55,-0.9 -0.16,-0.3 -0.29,-0.54 -0.3,-0.64 -0.01,-0.1 0.69,0.2 0.75,0.25 0.06,0 0.24,0.09 0.33,0.09 0.09,0 0.16,0 0.35,-0.17 0.2,-0.17 0.23,-0.38 0.2,-0.56 C 18.58,7.8 18.43,7.6 18.31,7.43 18.18,7.2 18.05,7.04 18,6.88 17.87,6.51 17.8,6.13 17.52,5.64 17.34,5.3 16.92,5.06 16.69,4.94 c -0.37,-0.19 -0.7,-0.3 -0.7,-0.3 -0.4,-1.7 -1,-2.45 -2.48,-2.87 -1.37,-0.39 -2.09,-0.6 -2.68,-1.16 -0.1,-0.09 -0.19,-0.1 -0.25,-0.07 -0.08,0.04 -0.07,0.14 0,0.24 0.35,0.69 1.29,1.25 2.57,1.7 0.95,0.34 1.48,0.89 1.6,1.7 -0.26,0 -0.57,-0.15 -0.64,-0.17 C 13.96,4 13.9,4 13.87,4 c 0,0 -0.05,0.05 0,0.13 0,0.09 0.1,0.5 0.29,0.87 0.19,0.35 0.24,0.45 0.3,0.54 -0.04,0.24 -0.17,1.2 -0.16,2.09 0.01,0.89 0,2.26 -0.08,2.47 0,0 -0.14,0.13 -0.47,0.43 -0.33,0.29 -2.2,1.68 -3,2.17 -0.7,0.4 -2.78,1.6 -4.4,2.05 -0.64,0.17 -0.74,0.18 -0.76,0.28 0,0.06 0,0.1 0.14,0.15 0.14,0.05 0.97,0.36 0.96,0.5 0,0.4 -0.36,0.8 -0.58,1.46 -0.1,0.37 -0.49,0.7 -0.89,0.94 -0.19,0.1 -0.39,0.23 -0.55,0.3 -0.16,0.1 -0.27,0.14 -0.36,0.26 -0.17,0.25 -0.2,0.56 -0.55,0.88 -0.37,0.36 -0.73,0.78 -1,1.06 -0.3,0.33 -0.65,1.07 -0.89,1.3 -0.1,0.1 -0.28,0.2 -0.37,0.23 -0.1,0.04 -0.3,0.06 -0.36,0.2 -0.05,0.13 -0.16,0.38 -0.09,0.7 0.04,0.17 0.17,0.2 0.3,0.2 0.08,0 0.14,-0.04 0.2,-0.07 0.06,-0.04 0.5,-0.36 0.88,-0.78 0.87,-1 1.8,-2.34 2.5,-2.85 0.76,-0.55 2.9,-1.3 3.87,-1.93 0.48,-0.3 1,-0.8 1.43,-1.23 0.2,-0.2 0.4,-0.4 0.54,-0.54 0.07,-0.07 0.13,-0.13 0.17,-0.17 0,0 0,0 0.04,-0.04 0.29,-0.04 2.45,-0.13 4.47,-0.84 0.9,-0.3 1.5,-0.84 1.9,-1.29 0.3,-0.35 0.7,-0.96 0.77,-1 0.04,0 0.23,-0.06 0.28,-0.07 0.47,-0.09 0.87,-0.09 1.19,-0.09 0.07,0 0.09,0 0.1,0 0,0 -0.4,0.63 -0.59,0.85 -0.18,0.23 -0.4,0.43 -0.6,0.55 -0.19,0.13 -0.4,0.23 -0.5,0.4 -0.1,0.19 -0.27,0.4 -0.65,0.59 -0.56,0.26 -0.66,0.43 -0.63,0.6 0,0.17 0.18,0.58 0.34,0.59 0.1,0 0.28,-0.08 0.47,-0.19 0.55,-0.35 1.86,-1.58 2.37,-2.1 0.5,-0.5 1.18,-1.5 1.4,-1.87 0.08,0.02 0.08,-0.23 0,-0.36 z"
     id="path6"
     inkscape:connector-curvature="0"
     style="fill:#ffffff" />
  <rect
     style="fill:#ff0000;fill-opacity:0"
     id="rect3340"
     width="24.587097"
     height="24.825806"
     x="-0.23870967"
     y="-0.34838709" />
</svg>
