<?xml version="1.0" encoding="utf-8"?>
<!-- Generator: Adobe Illustrator 16.0.3, SVG Export Plug-In . SVG Version: 6.00 Build 0)  -->
<!DOCTYPE svg PUBLIC "-//W3C//DTD SVG 1.1//EN" "http://www.w3.org/Graphics/SVG/1.1/DTD/svg11.dtd">
<svg version="1.1" id="Layer_1" xmlns="http://www.w3.org/2000/svg" xmlns:xlink="http://www.w3.org/1999/xlink" x="0px" y="0px"
	 width="216px" height="64px" viewBox="0 0 216 64" enable-background="new 0 0 216 64" xml:space="preserve">
<g id="beta" display="none">
	<rect id="Bounding_Box" display="inline" fill="none" width="216" height="64"/>
	<path id="Logo_Shape" display="inline" fill="#0099A6" d="M41.852,18.5l-12.756,6.193l11.722,8.731L36.543,45h15.646l5.031-16.615
		L41.852,18.5z M25.654,26.509l-5.573,3.056L20,45h12.39l4.197-10.559L25.654,26.509z"/>
	<path id="Brand_Name" display="inline" fill="#4D433F" d="M82.01,32.418c0-1.151-0.181-2.293-0.538-3.391
		c-0.357-1.1-0.942-2.087-1.737-2.938c-0.768-0.822-1.666-1.436-2.669-1.82c-1.004-0.385-2.096-0.58-3.248-0.58
		c-1.398,0-2.678,0.244-3.805,0.724c-1.125,0.48-2.141,1.169-3.019,2.048c-1.263,1.235-2.237,2.758-2.896,4.527
		c-0.658,1.769-0.992,3.599-0.992,5.437c0,2.084,0.488,3.949,1.451,5.541c0.796,1.264,1.813,2.209,3.022,2.813
		c1.21,0.604,2.575,0.911,4.059,0.911c1.043,0,2.046-0.146,2.98-0.436c0.934-0.287,1.798-0.713,2.567-1.26
		c0.77-0.552,1.453-1.232,2.029-2.029c0.576-0.795,1.037-1.7,1.367-2.688l0.008-0.023l-3.681,0.011
		c-0.464,1.038-1.129,1.868-1.977,2.47c-0.847,0.6-1.83,0.904-2.923,0.904c-1.669,0-2.978-0.525-3.893-1.563
		c-0.915-1.037-1.379-2.436-1.379-4.158v-0.556c0-0.139,0.008-0.278,0.024-0.422l0.013-0.118l11.811,0.004
		c1.593,0,2.943-0.15,3.325-2.021c0.106-0.521,0.105-0.718,0.102-1.146L82.01,32.418z M78.463,32.396
		c0,0.084-0.006,0.171-0.019,0.261l-0.016,0.114H67.237l0.049-0.17c0.211-0.723,0.478-1.422,0.792-2.075
		c0.342-0.707,0.794-1.345,1.346-1.896c0.521-0.544,1.147-1.009,1.858-1.376c0.712-0.368,1.504-0.556,2.352-0.556
		c0.794,0,1.503,0.146,2.105,0.433c0.601,0.285,1.107,0.673,1.506,1.15c0.396,0.477,0.702,1.045,0.908,1.686
		c0.206,0.644,0.31,1.329,0.31,2.038V32.396z M138.846,24.163L135.173,45h3.571l3.703-20.837H138.846z M172.887,24.163h-12.898
		l-3.038,3.308h5.979L159.834,45h3.6l3.064-17.529h5.781L172.887,24.163z M172.246,45h3.658l3.675-20.837h-3.66L172.246,45z
		 M156.462,24.168h-5.021l-5.33,5.428c-0.615,0.666-1.228,1.271-1.768,1.806c-2.371,2.349-3.678,3.642-1.592,5.858
		c1.124,1.195,2.16,2.26,2.17,2.271l5.766,5.471h5.002l-10.219-9.844l0.096-0.095L156.462,24.168z M88.643,31.32
		c0.29-2.668,1.439-3.761,3.968-3.761c0.041,0,4.165-0.017,5.958-0.023l0.693-3.62c-0.984-0.009-6.186-0.051-6.598-0.051
		c-4.538,0-6.736,1.985-7.587,6.854l-2.182,12.745L82.552,45h3.594l0.035-0.199h0.043l1.486-8.283h9.383l0.496-3.219h-9.302
		L88.643,31.32z M100.697,30.719l-2.182,12.745L98.172,45h3.594l0.034-0.199h0.043l1.486-8.283h9.384l0.496-3.219h-9.302
		l0.355-1.979c0.29-2.668,1.439-3.761,3.968-3.761c0.041,0,4.165-0.017,5.958-0.023l0.692-3.62
		c-0.983-0.009-6.185-0.051-6.598-0.051C103.747,23.865,101.548,25.851,100.697,30.719z M189.757,27.56
		c0.042,0,4.166-0.017,5.959-0.023l0.691-3.62c-0.984-0.009-6.187-0.051-6.597-0.051c-4.539,0-6.736,1.985-7.588,6.854
		l-2.182,12.744l-0.344,1.539h3.595l0.034-0.201h0.044l1.487-8.282h9.384l0.495-3.218h-9.303l0.356-1.979
		C186.079,28.652,187.229,27.56,189.757,27.56z M134.57,32.418c0-1.151-0.182-2.293-0.538-3.391c-0.357-1.1-0.943-2.087-1.738-2.938
		c-0.769-0.822-1.666-1.435-2.669-1.82c-1.004-0.385-2.098-0.58-3.248-0.58c-1.398,0-2.68,0.244-3.805,0.724
		s-2.141,1.169-3.02,2.048c-1.264,1.235-2.236,2.758-2.896,4.527c-0.658,1.769-0.992,3.599-0.992,5.437
		c0,2.086,0.487,3.951,1.451,5.541c0.795,1.264,1.812,2.209,3.021,2.813c1.211,0.604,2.576,0.911,4.059,0.911
		c1.043,0,2.047-0.146,2.98-0.436c0.936-0.287,1.799-0.713,2.567-1.26c0.771-0.552,1.452-1.232,2.03-2.029
		c0.576-0.797,1.035-1.701,1.365-2.688l0.008-0.023l-3.681,0.012c-0.465,1.037-1.13,1.869-1.978,2.469
		c-0.846,0.6-1.831,0.904-2.924,0.904c-1.668,0-2.978-0.525-3.893-1.563s-1.379-2.436-1.379-4.158v-0.556
		c0-0.138,0.008-0.278,0.023-0.422l0.014-0.118l11.811,0.004c1.594,0,2.942-0.15,3.325-2.021c0.106-0.521,0.104-0.716,0.103-1.146
		L134.57,32.418z M131.023,32.396c0,0.084-0.006,0.171-0.02,0.261l-0.016,0.114h-11.192l0.05-0.17
		c0.209-0.722,0.477-1.421,0.793-2.075c0.34-0.707,0.793-1.345,1.344-1.895c0.521-0.546,1.147-1.011,1.858-1.378
		c0.714-0.368,1.505-0.556,2.353-0.556c0.795,0,1.502,0.146,2.105,0.433c0.602,0.285,1.107,0.673,1.506,1.15
		c0.396,0.477,0.701,1.045,0.907,1.686c0.206,0.644,0.31,1.329,0.31,2.038v0.392H131.023z"/>
</g>
<path fill="#FFFFFF" d="M131.581,30.894l-0.233,1.675h-9.861l0.236-1.645c0.321-2.434,2.553-3.579,5.457-3.579
	C130.027,27.345,131.934,28.461,131.581,30.894 M127.648,24c-4.9,0-8.951,2.523-9.537,6.66l-1.145,8.242
	c-0.587,4.106,2.701,6.454,7.659,6.454c4.931,0,8.894-2.26,9.421-6.045l0.063-0.496h-3.594l-0.02,0.146
	c-0.294,2.141-2.467,3.078-5.4,3.078c-2.875,0-4.813-1.055-4.461-3.461l0.383-2.847h13.528l0.704-5.104
	C135.836,26.493,132.492,24,127.648,24 M79.833,30.894l-0.234,1.675h-9.861l0.235-1.645c0.323-2.434,2.553-3.579,5.458-3.579
	C78.278,27.345,80.185,28.461,79.833,30.894 M75.901,24c-4.901,0-8.951,2.523-9.537,6.66l-1.145,8.242
	c-0.587,4.106,2.7,6.454,7.659,6.454c4.93,0,8.893-2.26,9.421-6.045l0.062-0.496h-3.593l-0.02,0.146
	c-0.294,2.141-2.465,3.078-5.4,3.078c-2.875,0-4.813-1.055-4.461-3.461l0.382-2.847h13.529l0.704-5.104
	C84.088,26.493,80.744,24,75.901,24 M171.909,44.943h3.608l2.875-20.53h-3.607L171.909,44.943z M158.729,24.413l-3.5,3.336h5.998
	l-2.435,17.194h3.638l2.407-17.194h5.981l0.47-3.336H158.729z M139.089,24.413l-2.875,20.53h3.461l2.905-20.53H139.089z
	 M156.171,24.413h-4.812l-9.652,9.748l7.393,10.782h4.519l-7.425-10.782L156.171,24.413z M89.981,31.423
	c0.323-2.406,2.055-3.668,4.873-3.668h6.13l0.468-3.342h-6.129c-4.93,0-8.363,2.579-8.922,6.657l-1.965,13.873h3.638l1.299-9.213
	h8.683l0.459-3.172h-8.712L89.981,31.423z M110.736,27.755h6.131l0.47-3.342h-6.13c-4.929,0-8.364,2.579-8.921,6.657l-1.965,13.873
	h3.638l1.299-9.213h8.684l0.459-3.172h-8.713l0.18-1.136C106.188,29.017,107.918,27.755,110.736,27.755 M189.4,27.755h6.131
	L196,24.413h-6.13c-4.931,0-8.364,2.579-8.923,6.657l-1.965,13.873h3.639l1.298-9.213h8.685l0.459-3.172h-8.713l0.178-1.136
	C184.852,29.017,186.582,27.755,189.4,27.755"/>
<path fill="#FFFFFF" d="M20,29.06V45h12.716l4.336-10.903l-11.291-8.182L20,29.06z M42.888,16.573l-13.613,7.426l12.22,8.839
	L36.654,45h14.968l6.822-17.136L42.888,16.573z"/>
</svg>
